<svg id="SvgjsSvg1001" width="100%" height="100%" xmlns="http://www.w3.org/2000/svg" version="1.1" xlink="http://www.w3.org/1999/xlink" xmlns:svgjs="http://svgjs.com/svgjs" preserveAspectRatio="xMidYMid meet" viewBox="0 0 113.33207702636719 147" overflow="visible"><defs id="SvgjsDefs1002"></defs><g id="SvgjsG1008" transform="scale(0.9586539715664538)" opacity="1"><g id="SvgjsG1009" class="i32j91ZSV" transform="translate(24.07428571428571, -0.7007142857142857) scale(0.7007142857142857)" light-content="false" non-strokable="true" fill="#303030"><path d="M1 99h75c12.703 0 23-10.297 23-23V1H24C11.297 1 1 11.297 1 24v75z" stroke="#303030" fill="none" stroke-width="2"></path></g><g id="SvgjsG1010" class="text" transform="translate(61.64658306630452, 48.40666803995769) scale(1)" light-content="false" fill="#303030"><path d="M2.62 -5.96L2.62 -30.02C2.62 -31.65 2.64 -33.08 2.68 -34.3C2.72 -35.52 2.78 -36.57 2.85 -37.47C2.93 -38.36 3.02 -39.1 3.13 -39.7C3.23 -40.29 3.34 -40.79 3.46 -41.2L3.46 -41.31L-3.46 -41.31L-3.46 -41.2C-3.34 -40.79 -3.23 -40.29 -3.13 -39.7C-3.02 -39.1 -2.93 -38.36 -2.85 -37.47C-2.78 -36.57 -2.72 -35.52 -2.68 -34.3C-2.64 -33.08 -2.62 -31.65 -2.62 -30.02L-2.62 -5.96C-2.62 -3.93 -2.68 -2.05 -2.79 -0.33C-2.91 1.39 -3.17 2.99 -3.59 4.48C-4 5.97 -4.59 7.37 -5.37 8.67C-6.15 9.98 -7.2 11.24 -8.53 12.45L-8.01 13.17C-6.47 12.05 -5.06 10.92 -3.76 9.77C-2.46 8.61 -1.34 7.3 -0.39 5.83C0.56 4.36 1.3 2.68 1.83 0.78C2.36 -1.12 2.62 -3.37 2.62 -5.96Z"></path></g><g id="SvgjsG1011" class="text" transform="translate(61.220001220703125, 139.94999877929686) scale(1)" light-content="false" fill="#303030"><path d="M-49.88 -6.06L-49.88 -30.53C-49.88 -32.19 -49.86 -33.64 -49.82 -34.88C-49.78 -36.12 -49.72 -37.19 -49.64 -38.1C-49.57 -39.01 -49.47 -39.77 -49.37 -40.37C-49.26 -40.98 -49.15 -41.48 -49.03 -41.89L-49.03 -42.01L-56.06 -42.01L-56.06 -41.89C-55.94 -41.48 -55.83 -40.98 -55.72 -40.37C-55.62 -39.77 -55.52 -39.01 -55.44 -38.1C-55.37 -37.19 -55.31 -36.12 -55.27 -34.88C-55.23 -33.64 -55.21 -32.19 -55.21 -30.53L-55.21 -6.06C-55.21 -3.99 -55.27 -2.08 -55.39 -0.34C-55.5 1.41 -55.77 3.04 -56.19 4.56C-56.61 6.07 -57.22 7.49 -58.01 8.82C-58.8 10.15 -59.87 11.43 -61.22 12.66L-60.69 13.39C-59.13 12.26 -57.69 11.1 -56.37 9.93C-55.05 8.76 -53.91 7.43 -52.94 5.93C-51.97 4.44 -51.22 2.72 -50.68 0.79C-50.15 -1.14 -49.88 -3.43 -49.88 -6.06Z M-21.72 -42.71C-23.89 -42.71 -25.92 -42.44 -27.8 -41.88C-29.69 -41.32 -31.41 -40.55 -32.96 -39.55C-34.51 -38.55 -35.89 -37.38 -37.09 -36.02C-38.29 -34.66 -39.31 -33.17 -40.14 -31.55C-40.97 -29.93 -41.6 -28.22 -42.03 -26.43C-42.46 -24.63 -42.67 -22.8 -42.67 -20.95C-42.67 -17.67 -42.1 -14.68 -40.97 -12C-39.84 -9.31 -38.27 -7.01 -36.25 -5.1C-34.24 -3.18 -31.86 -1.7 -29.09 -0.66C-26.33 0.39 -23.32 0.91 -20.05 0.91C-17.89 0.91 -15.86 0.63 -13.99 0.07C-12.11 -0.48 -10.4 -1.25 -8.85 -2.24C-7.29 -3.23 -5.91 -4.4 -4.7 -5.76C-3.49 -7.11 -2.47 -8.59 -1.64 -10.2C-0.81 -11.8 -0.18 -13.5 0.25 -15.29C0.68 -17.09 0.89 -18.92 0.89 -20.77C0.89 -24.03 0.33 -27.01 -0.81 -29.71C-1.94 -32.4 -3.51 -34.71 -5.52 -36.64C-7.53 -38.56 -9.92 -40.05 -12.69 -41.12C-15.45 -42.18 -18.46 -42.71 -21.72 -42.71ZM-20.05 -1.73C-22.77 -1.73 -25.15 -2.27 -27.2 -3.35C-29.25 -4.44 -30.96 -5.93 -32.33 -7.82C-33.7 -9.72 -34.72 -11.96 -35.41 -14.55C-36.09 -17.13 -36.43 -19.92 -36.43 -22.91C-36.43 -25.63 -36.07 -28.05 -35.35 -30.18C-34.62 -32.3 -33.61 -34.1 -32.31 -35.57C-31.02 -37.03 -29.47 -38.15 -27.67 -38.92C-25.87 -39.69 -23.89 -40.08 -21.72 -40.08C-19.01 -40.08 -16.63 -39.55 -14.59 -38.48C-12.55 -37.42 -10.84 -35.94 -9.48 -34.06C-8.11 -32.17 -7.08 -29.95 -6.39 -27.38C-5.69 -24.81 -5.35 -22.02 -5.35 -19.01C-5.35 -16.3 -5.71 -13.87 -6.43 -11.73C-7.15 -9.59 -8.16 -7.78 -9.46 -6.3C-10.76 -4.81 -12.31 -3.68 -14.11 -2.9C-15.9 -2.12 -17.89 -1.73 -20.05 -1.73Z M25 -35.33L25.21 -40.81C24.9 -40.95 24.5 -41.12 24.01 -41.34C23.52 -41.55 22.95 -41.77 22.29 -41.98C21.64 -42.2 20.9 -42.38 20.08 -42.54C19.26 -42.7 18.36 -42.77 17.39 -42.77C16.06 -42.77 14.77 -42.54 13.52 -42.07C12.27 -41.6 11.15 -40.93 10.17 -40.05C9.18 -39.17 8.39 -38.11 7.79 -36.87C7.2 -35.63 6.9 -34.24 6.9 -32.7C6.9 -31.23 7.12 -29.89 7.57 -28.67C8.02 -27.45 8.61 -26.3 9.35 -25.24C10.08 -24.17 10.91 -23.17 11.84 -22.24C12.76 -21.3 13.72 -20.39 14.69 -19.5C15.67 -18.61 16.62 -17.72 17.55 -16.85C18.48 -15.97 19.31 -15.06 20.04 -14.12C20.77 -13.18 21.36 -12.19 21.81 -11.15C22.26 -10.1 22.49 -8.96 22.49 -7.73C22.49 -6.86 22.33 -6.04 22.03 -5.3C21.73 -4.56 21.29 -3.92 20.73 -3.38C20.16 -2.85 19.48 -2.43 18.69 -2.12C17.9 -1.82 17.01 -1.67 16.01 -1.67C14.92 -1.67 13.91 -1.86 12.99 -2.24C12.08 -2.62 11.26 -3.13 10.55 -3.76C9.83 -4.4 9.23 -5.13 8.75 -5.96C8.26 -6.79 7.91 -7.67 7.69 -8.58L6.96 -8.58L6.28 -2.11C6.71 -1.82 7.27 -1.49 7.94 -1.14C8.61 -0.79 9.38 -0.46 10.22 -0.16C11.07 0.14 12 0.4 13.01 0.6C14.01 0.81 15.07 0.91 16.19 0.91C18.18 0.91 19.9 0.59 21.34 -0.04C22.79 -0.68 23.97 -1.5 24.89 -2.52C25.81 -3.54 26.48 -4.68 26.92 -5.96C27.36 -7.24 27.58 -8.52 27.58 -9.79C27.58 -11.48 27.19 -13.07 26.4 -14.55C25.61 -16.02 24.61 -17.43 23.42 -18.78C22.23 -20.13 20.94 -21.43 19.56 -22.68C18.17 -23.93 16.88 -25.18 15.69 -26.43C14.5 -27.68 13.51 -28.94 12.71 -30.22C11.92 -31.5 11.53 -32.84 11.53 -34.25C11.53 -35.13 11.66 -35.93 11.91 -36.65C12.16 -37.37 12.54 -38 13.04 -38.53C13.54 -39.05 14.16 -39.46 14.9 -39.76C15.64 -40.05 16.49 -40.2 17.45 -40.2C18.52 -40.2 19.45 -40.03 20.24 -39.7C21.04 -39.37 21.71 -38.95 22.27 -38.45C22.82 -37.95 23.27 -37.42 23.61 -36.86C23.96 -36.29 24.2 -35.78 24.36 -35.33Z M34.79 -42.01L34.79 -42.01L34.79 -41.89C34.91 -41.48 35.02 -40.98 35.13 -40.37C35.23 -39.77 35.33 -39.01 35.41 -38.1C35.48 -37.19 35.54 -36.12 35.58 -34.88C35.62 -33.64 35.64 -32.19 35.64 -30.53L35.64 -11.46C35.64 -9.79 35.62 -8.34 35.58 -7.1C35.54 -5.86 35.48 -4.79 35.41 -3.9C35.33 -3 35.23 -2.25 35.13 -1.64C35.02 -1.04 34.91 -0.53 34.79 -0.12L34.79 0L47.45 0C47.64 0 47.96 0 48.4 0.01C48.84 0.02 49.34 0.03 49.91 0.04C50.47 0.05 51.07 0.06 51.71 0.07C52.34 0.08 52.95 0.1 53.53 0.12C54.1 0.14 54.62 0.16 55.09 0.18C55.56 0.2 55.91 0.21 56.15 0.23L57 -4.51C55.61 -4.14 54.08 -3.82 52.4 -3.54C50.95 -3.29 49.26 -3.07 47.33 -2.87C45.4 -2.68 43.28 -2.58 40.97 -2.58L40.97 -20.95C42.28 -20.95 43.65 -20.89 45.07 -20.79C46.5 -20.68 47.82 -20.56 49.03 -20.42C50.43 -20.26 51.81 -20.1 53.16 -19.92L54.07 -24.17C53.05 -24.01 51.88 -23.88 50.55 -23.76C49.42 -23.66 48.04 -23.56 46.42 -23.47C44.8 -23.37 42.98 -23.31 40.97 -23.29L40.97 -39.29C41.69 -39.33 42.41 -39.37 43.11 -39.4C43.72 -39.44 44.35 -39.48 45 -39.51C45.65 -39.54 46.22 -39.55 46.68 -39.55C48.07 -39.55 49.3 -39.5 50.36 -39.39C51.43 -39.28 52.33 -39.17 53.07 -39.05C53.93 -38.92 54.68 -38.76 55.33 -38.58L56.76 -42.48C56.25 -42.38 55.29 -42.3 53.86 -42.25C52.44 -42.19 50.72 -42.14 48.71 -42.11C46.69 -42.08 44.48 -42.06 42.07 -42.04C39.66 -42.02 37.23 -42.01 34.79 -42.01ZM53.28 -50.71L50.58 -55.28C49.45 -54.25 48.28 -53.22 47.07 -52.21C46.01 -51.33 44.85 -50.39 43.59 -49.39C42.33 -48.4 41.07 -47.48 39.8 -46.64L40.44 -45.56C41.11 -45.91 41.81 -46.25 42.54 -46.57C43.27 -46.89 44 -47.21 44.72 -47.52C45.44 -47.83 46.16 -48.12 46.86 -48.4C47.56 -48.67 48.24 -48.93 48.88 -49.16C50.37 -49.71 51.83 -50.22 53.28 -50.71Z"></path></g></g></svg>